<?xml version="1.0" encoding="utf-8"?>
<!-- Generator: Adobe Illustrator 28.0.0, SVG Export Plug-In . SVG Version: 6.00 Build 0)  -->
<svg version="1.1" id="Layer_1" xmlns="http://www.w3.org/2000/svg" xmlns:xlink="http://www.w3.org/1999/xlink" x="0px" y="0px"
	 viewBox="0 0 124.86 56.7" style="enable-background:new 0 0 124.86 56.7;" xml:space="preserve">
<style type="text/css">
	.st0{fill:#EEEEEE;}
</style>
<g>
	<path class="st0" d="M124.86,29.23c-8.65,16.28-25.79,27.36-45.51,27.36c-3.84,0-7.59-0.42-11.19-1.22V38.28
		c3.49,1.17,7.23,1.8,11.11,1.8c15.26,0,28.25-9.77,33.03-23.4h0.01L124.86,29.23z"/>
	<rect x="68.16" y="0.11" class="st0" width="56.69" height="16.57"/>
</g>
<g>
	<path class="st0" d="M27.36,56.7C11.08,48.05,0,30.91,0,11.19C0,7.35,0.42,3.6,1.22,0h17.09c-1.17,3.49-1.8,7.23-1.8,11.11
		c0,15.26,9.77,28.25,23.4,33.03v0.01L27.36,56.7z"/>
	<rect x="39.91" y="0" class="st0" width="16.57" height="56.69"/>
</g>
</svg>
