<svg width="86" height="33" viewBox="0 0 86 33" fill="none" xmlns="http://www.w3.org/2000/svg">
<path d="M17.219 32.9999V24.4062H43V32.9999H17.219Z" fill="white"/>
<path d="M0.547241 20.7978V12.2041H43V20.7978H0.547241Z" fill="white"/>
<path d="M11.8049 8.59367V0H42.9999V8.59367H11.8049Z" fill="white"/>
<path d="M52.8827 1.54492H53.6561H53.7421C53.7421 1.54492 53.7421 1.54492 53.7421 1.63086V7.13081V7.21674C53.7421 7.21674 53.7421 7.21674 53.6561 7.21674H52.8827H52.7968C52.7968 7.21674 52.7968 7.21674 52.7968 7.13081V3.26366L51.9374 4.72458C51.9374 4.81052 51.8515 4.81052 51.8515 4.81052H51.5936C51.5077 4.81052 51.5077 4.81052 51.5077 4.72458L50.6483 3.34959V7.21674V7.30268C50.6483 7.30268 50.6483 7.30268 50.5624 7.30268H49.789H49.703C49.703 7.30268 49.703 7.30268 49.703 7.21674V1.7168V1.63086C49.703 1.63086 49.703 1.63086 49.789 1.63086H50.5624C50.6483 1.63086 50.6483 1.63086 50.6483 1.7168L51.6796 3.43553C51.6796 3.43553 51.6796 3.43553 51.7655 3.43553L52.7968 1.7168C52.7968 1.63086 52.7968 1.54492 52.8827 1.54492Z" fill="white"/>
<path d="M59.156 2.40526H56.8357V3.95212H58.2967H58.3826C58.3826 3.95212 58.3826 3.95212 58.3826 4.03806V4.63962V4.72555C58.3826 4.72555 58.3826 4.72555 58.2967 4.72555H56.8357V6.27241H59.0701H59.156C59.156 6.27241 59.156 6.27241 59.156 6.35835V6.95991V7.04584C59.156 7.04584 59.156 7.04584 59.0701 7.04584H55.9764H55.8904C55.8904 7.04584 55.8904 7.04584 55.8904 6.95991V1.45996V1.37402C55.8904 1.37402 55.8904 1.37402 55.9764 1.37402H59.0701H59.156C59.156 1.37402 59.156 1.37402 59.156 1.45996V2.40526C59.242 2.31932 59.242 2.31932 59.156 2.40526Z" fill="white"/>
<path d="M61.2185 7.21674V1.63086V1.54492C61.2185 1.54492 61.2185 1.54492 61.3045 1.54492H63.0232C63.5388 1.54492 63.9685 1.7168 64.3123 1.97461C64.656 2.23242 64.8279 2.6621 64.8279 3.17772V5.66988C64.8279 6.1855 64.656 6.52925 64.3123 6.873C63.9685 7.13081 63.5388 7.30268 63.0232 7.30268L61.2185 7.21674C61.3045 7.21674 61.3045 7.21674 61.2185 7.21674ZM62.1638 6.44331H62.9373C63.1951 6.44331 63.367 6.35738 63.5388 6.1855C63.7107 6.01363 63.7966 5.84176 63.7966 5.49801V3.26366C63.7966 3.00585 63.7107 2.74804 63.6248 2.57616C63.4529 2.40429 63.281 2.31835 63.0232 2.31835H62.2498L62.1638 6.44331Z" fill="white"/>
<path d="M66.8903 7.21674C66.8044 7.21674 66.8044 7.21674 66.8903 7.21674V1.63086V1.54492C66.8903 1.54492 66.8903 1.54492 66.9763 1.54492H67.7497H67.8357C67.8357 1.54492 67.8357 1.54492 67.8357 1.63086V7.13081V7.21674C67.8357 7.21674 67.8357 7.21674 67.7497 7.21674H66.8903Z" fill="white"/>
<path d="M72.82 7.13081L72.6481 6.27144H71.0153L70.8435 7.13081C70.8435 7.21674 70.7575 7.21674 70.7575 7.21674H69.9841C69.8982 7.21674 69.8982 7.21674 69.8982 7.13081L71.3591 1.63086C71.3591 1.54492 71.445 1.54492 71.445 1.54492H72.2185C72.3044 1.54492 72.3044 1.54492 72.3044 1.63086L73.7653 7.13081C73.7653 7.21674 73.7653 7.21674 73.6794 7.21674H72.9059C72.9059 7.21674 72.82 7.21674 72.82 7.13081ZM71.1013 5.49801H72.3903L71.7028 2.83397L71.1013 5.49801Z" fill="white"/>
<path d="M53.9139 19.3349C53.9139 19.4208 53.828 19.4208 53.9139 19.3349L52.9686 19.4208C52.8827 19.4208 52.8827 19.4208 52.8827 19.3349L52.6249 18.9912C52.6249 18.9912 52.6249 18.9912 52.5389 18.9912C52.1093 19.3349 51.5936 19.5068 51.078 19.5068C50.5624 19.5068 50.2187 19.4208 49.8749 19.163C49.6171 18.9052 49.4452 18.5615 49.4452 18.1318C49.4452 17.788 49.5312 17.4443 49.703 17.1865C49.8749 16.9287 50.1327 16.6709 50.4765 16.499C50.4765 16.499 50.4765 16.499 50.4765 16.4131C50.2187 16.0693 50.0468 15.8115 49.9608 15.6396C49.8749 15.4678 49.8749 15.2959 49.8749 15.0381C49.8749 14.6084 50.0468 14.3506 50.3046 14.0928C50.5624 13.835 50.9061 13.749 51.3358 13.749C51.5936 13.749 51.8514 13.835 52.1093 13.9209C52.3671 14.0068 52.5389 14.1787 52.6249 14.4365C52.7108 14.6943 52.7968 14.8662 52.7968 15.124C52.7968 15.4678 52.7108 15.7256 52.5389 15.9834C52.3671 16.2412 52.1093 16.4131 51.7655 16.6709C51.7655 16.6709 51.7655 16.6709 51.7655 16.7568C51.9374 16.9287 52.1952 17.2724 52.453 17.6162L52.6249 17.788H52.7108C52.8827 17.5302 53.0546 17.3584 53.1405 17.1865C53.1405 17.1006 53.2264 17.1006 53.3124 17.1865L53.828 17.5302C53.9139 17.5302 53.9139 17.6162 53.828 17.7021C53.6561 18.0459 53.3983 18.3037 53.2264 18.5615C53.2264 18.5615 53.2264 18.5615 53.2264 18.6474L53.9139 19.3349ZM51.9374 18.3037C52.0233 18.3037 52.0233 18.3037 51.9374 18.3037L51.5936 17.788L51.5077 17.6162L51.078 17.1006C51.078 17.1006 51.078 17.1006 50.9921 17.1006C50.8202 17.2724 50.6483 17.3584 50.5624 17.5302C50.4765 17.7021 50.3905 17.874 50.3905 18.0459C50.3905 18.2177 50.4765 18.3896 50.5624 18.4755C50.6483 18.5615 50.8202 18.6474 51.078 18.6474C51.3358 18.6474 51.6796 18.5615 51.9374 18.3037ZM50.9061 14.6943C50.7343 14.7803 50.7343 14.9521 50.7343 15.124C50.7343 15.2099 50.7343 15.2959 50.8202 15.4678C50.9061 15.5537 50.9921 15.7256 51.164 15.9834C51.164 15.9834 51.164 15.9834 51.2499 15.9834C51.4218 15.8115 51.5936 15.7256 51.6796 15.5537C51.7655 15.3818 51.8514 15.2959 51.8514 15.124C51.8514 14.9521 51.7655 14.8662 51.6796 14.6943C51.5936 14.6084 51.4218 14.5225 51.2499 14.5225C51.078 14.5225 50.9921 14.6084 50.9061 14.6943Z" fill="white"/>
<path d="M57.1795 19.4208C57.1795 19.3349 57.1795 19.3349 57.1795 19.4208V13.835V13.749C57.1795 13.749 57.1795 13.749 57.2654 13.749H58.9842C59.4998 13.749 59.9295 13.9209 60.2732 14.1787C60.617 14.4365 60.7888 14.8662 60.7888 15.3818V17.874C60.7888 18.3896 60.617 18.7334 60.2732 19.0771C59.9295 19.3349 59.4998 19.5068 58.9842 19.5068L57.1795 19.4208ZM58.1248 18.5615H58.8982C59.156 18.5615 59.3279 18.4755 59.4998 18.3037C59.6717 18.1318 59.7576 17.9599 59.7576 17.6162V15.3818C59.7576 15.124 59.6717 14.8662 59.5857 14.6943C59.4139 14.5225 59.242 14.4365 58.9842 14.4365H58.2107L58.1248 18.5615Z" fill="white"/>
<path d="M65.9451 14.5225H63.6248V16.0693H65.0857H65.1716C65.1716 16.0693 65.1716 16.0693 65.1716 16.1552V16.7568V16.8427C65.1716 16.8427 65.1716 16.8427 65.0857 16.8427H63.6248V18.3896H65.8591H65.9451C65.9451 18.3896 65.9451 18.3896 65.9451 18.4755V19.0771V19.163C65.9451 19.163 65.9451 19.163 65.8591 19.163H62.7654H62.6795C62.6795 19.163 62.6795 19.163 62.6795 19.0771V13.5771V13.4912C62.6795 13.4912 62.6795 13.4912 62.7654 13.4912H65.8591H65.9451C65.9451 13.4912 65.9451 13.4912 65.9451 13.5771V14.5225Z" fill="white"/>
<path d="M68.6091 19.249C68.3513 19.163 68.0935 18.9052 68.0076 18.7334C67.8357 18.4755 67.7498 18.2177 67.7498 17.9599V17.788V17.7021C67.7498 17.7021 67.7498 17.7021 67.8357 17.7021H68.5232H68.6091C68.6091 17.7021 68.6091 17.7021 68.6091 17.788V17.9599C68.6091 18.2177 68.6951 18.3896 68.8669 18.5615C69.0388 18.7334 69.2107 18.8193 69.5544 18.8193C69.8122 18.8193 69.9841 18.7334 70.156 18.6474C70.3279 18.4755 70.3279 18.3896 70.3279 18.1318C70.3279 17.9599 70.3279 17.874 70.2419 17.788C70.156 17.7021 70.07 17.6162 69.8982 17.5302C69.7263 17.4443 69.5544 17.3584 69.2966 17.1865C68.9529 17.0146 68.6951 16.8427 68.5232 16.7568C68.3513 16.5849 68.1794 16.4131 68.0076 16.2412C67.8357 16.0693 67.8357 15.8115 67.8357 15.4678C67.8357 15.0381 68.0076 14.6084 68.2654 14.3506C68.5232 14.0928 68.9529 13.9209 69.4685 13.9209C69.8122 13.9209 70.156 14.0068 70.4138 14.0928C70.6716 14.2646 70.9294 14.4365 71.0153 14.6943C71.1872 14.9521 71.2732 15.2099 71.2732 15.5537V15.7256V15.8115C71.2732 15.8115 71.2732 15.8115 71.1872 15.8115H70.4997H70.4138C70.4138 15.8115 70.4138 15.8115 70.4138 15.7256V15.5537C70.4138 15.2959 70.3279 15.124 70.156 14.9521C69.9841 14.7803 69.8122 14.6943 69.5544 14.6943C69.2966 14.6943 69.1247 14.7803 69.0388 14.8662C68.8669 14.9521 68.8669 15.124 68.8669 15.3818C68.8669 15.5537 68.8669 15.6396 68.9529 15.7256C69.0388 15.8115 69.1247 15.8974 69.2966 15.9834C69.4685 16.0693 69.6404 16.1553 69.9841 16.3271C70.4138 16.5849 70.6716 16.7568 70.8435 16.8427C71.0153 16.9287 71.1872 17.1006 71.2732 17.3584C71.3591 17.5302 71.445 17.788 71.445 18.0459C71.445 18.5615 71.2732 18.9052 70.9294 19.163C70.5857 19.4208 70.156 19.5927 69.6404 19.5927C69.2107 19.5068 68.8669 19.4208 68.6091 19.249Z" fill="white"/>
<path d="M73.2496 19.4208C73.2496 19.3349 73.2496 19.3349 73.2496 19.4208V13.835V13.749C73.2496 13.749 73.2496 13.749 73.3356 13.749H74.109H74.1949C74.1949 13.749 74.1949 13.749 74.1949 13.835V19.3349V19.4208C74.1949 19.4208 74.1949 19.4208 74.109 19.4208H73.2496Z" fill="white"/>
<path d="M77.0309 19.249C76.7731 19.0771 76.5153 18.9052 76.4293 18.6474C76.2574 18.3896 76.1715 18.1318 76.1715 17.788V15.3818C76.1715 15.0381 76.2574 14.7803 76.4293 14.5225C76.6012 14.2646 76.7731 14.0928 77.0309 13.9209C77.2887 13.749 77.6324 13.749 77.9762 13.749C78.3199 13.749 78.6637 13.835 78.9215 13.9209C79.1793 14.0928 79.4371 14.2646 79.523 14.5225C79.6949 14.7803 79.7809 15.0381 79.7809 15.3818V15.5537V15.6396C79.7809 15.6396 79.7808 15.6396 79.6949 15.6396H78.9215H78.8355C78.8355 15.6396 78.8355 15.6396 78.8355 15.5537V15.3818C78.8355 15.124 78.7496 14.9521 78.5777 14.7803C78.4059 14.6084 78.234 14.5225 77.9762 14.5225C77.7184 14.5225 77.5465 14.6084 77.3746 14.7803C77.2028 14.9521 77.1168 15.124 77.1168 15.3818V17.788C77.1168 18.0459 77.2028 18.2177 77.3746 18.3896C77.5465 18.5615 77.7184 18.6474 77.9762 18.6474C78.234 18.6474 78.4059 18.5615 78.5777 18.4755C78.7496 18.3037 78.8355 18.1318 78.8355 17.874V17.2724H78.0621H77.9762C77.9762 17.2724 77.9762 17.2724 77.9762 17.1865V16.499V16.4131C77.9762 16.4131 77.9762 16.4131 78.0621 16.4131H79.6949H79.7809C79.7809 16.4131 79.7809 16.4131 79.7809 16.499V17.788C79.7809 18.3037 79.609 18.7334 79.2652 19.0771C78.9215 19.4208 78.4918 19.5068 77.9762 19.5068C77.6324 19.5068 77.2887 19.4208 77.0309 19.249Z" fill="white"/>
<path d="M84.5933 13.749H85.3667H85.4527C85.4527 13.749 85.4527 13.749 85.4527 13.835V19.3349V19.4208C85.4527 19.4208 85.4527 19.4208 85.3667 19.4208H84.5933C84.5074 19.4208 84.5074 19.4208 84.5074 19.3349L82.7027 15.7256V19.3349V19.4208C82.7027 19.4208 82.7027 19.4208 82.6168 19.4208H81.8433H81.7574C81.7574 19.4208 81.7574 19.4208 81.7574 19.3349V13.835V13.749C81.7574 13.749 81.7574 13.749 81.8433 13.749H82.6168C82.7027 13.749 82.7027 13.749 82.7027 13.835L84.5074 17.4443L84.5933 13.749C84.5074 13.835 84.5074 13.749 84.5933 13.749Z" fill="white"/>
<path d="M52.9686 26.6396C52.8827 26.7256 52.8827 26.7256 52.9686 26.6396H50.6483V28.1865H52.1093H52.1952C52.1952 28.1865 52.1952 28.1865 52.1952 28.2724V28.874V28.9599C52.1952 28.9599 52.1952 28.9599 52.1093 28.9599H50.6483V30.5068H52.8827H52.9686C52.9686 30.5068 52.9686 30.5068 52.9686 30.5927V31.1943V31.2802C52.9686 31.2802 52.9686 31.2802 52.8827 31.2802H49.789H49.703C49.703 31.2802 49.703 31.2802 49.703 31.1943V25.9521V25.8662C49.703 25.8662 49.703 25.8662 49.789 25.8662H52.8827H52.9686C52.9686 25.8662 52.9686 25.8662 52.9686 25.9521V26.6396Z" fill="white"/>
<path d="M55.5467 31.4511C55.2889 31.2792 55.0311 31.1074 54.9452 30.8496C54.7733 30.5917 54.6873 30.3339 54.6873 29.9902V27.584C54.6873 27.2402 54.7733 26.9824 54.9452 26.7246C55.117 26.4668 55.2889 26.2949 55.5467 26.123C55.8045 25.9512 56.1483 25.9512 56.492 25.9512C56.8358 25.9512 57.1795 26.0371 57.4373 26.123C57.6951 26.2949 57.9529 26.4668 58.0389 26.7246C58.2108 26.9824 58.2967 27.2402 58.2967 27.584V27.6699V27.7558C58.2967 27.7558 58.2967 27.7558 58.2107 27.7558H57.4373H57.3514C57.3514 27.7558 57.3514 27.7558 57.3514 27.6699V27.498C57.3514 27.2402 57.2655 27.0683 57.0936 26.8965C56.9217 26.7246 56.7498 26.6387 56.492 26.6387C56.2342 26.6387 56.0623 26.7246 55.8905 26.8965C55.7186 27.0683 55.6326 27.2402 55.6326 27.498V29.9043C55.6326 30.1621 55.7186 30.3339 55.8905 30.5058C56.0623 30.6777 56.2342 30.7636 56.492 30.7636C56.7498 30.7636 56.9217 30.6777 57.0936 30.5918C57.2655 30.4199 57.3514 30.248 57.3514 29.9902V29.3886H56.578H56.492C56.492 29.3886 56.492 29.3886 56.492 29.3027V28.7011V28.6152C56.492 28.6152 56.492 28.6152 56.578 28.6152H58.2107H58.2967C58.2967 28.6152 58.2967 28.6152 58.2967 28.7011V29.9902C58.2967 30.5058 58.1248 30.9355 57.7811 31.2792C57.4373 31.623 57.0076 31.7089 56.492 31.7089C56.1483 31.623 55.8045 31.5371 55.5467 31.4511Z" fill="white"/>
<path d="M63.5388 26.6396C63.5388 26.7256 63.5388 26.7256 63.5388 26.6396H61.2185V28.1865H62.6795H62.7654C62.7654 28.1865 62.7654 28.1865 62.7654 28.2724V28.874V28.9599C62.7654 28.9599 62.7654 28.9599 62.6795 28.9599H61.2185V30.5068H63.4529H63.5388C63.5388 30.5068 63.5388 30.5068 63.5388 30.5927V31.1943V31.2802C63.5388 31.2802 63.5388 31.2802 63.4529 31.2802H60.3592H60.2732C60.2732 31.2802 60.2732 31.2802 60.2732 31.1943V25.9521V25.8662C60.2732 25.8662 60.2732 25.8662 60.3592 25.8662H63.4529H63.5388C63.5388 25.8662 63.5388 25.8662 63.5388 25.9521V26.6396Z" fill="white"/>
<path d="M68.0935 31.4521L67.2341 29.1318H66.5466V31.4521V31.538C66.5466 31.538 66.5466 31.538 66.4607 31.538H65.6873H65.6013C65.6013 31.538 65.6013 31.538 65.6013 31.4521V25.9521V25.8662C65.6013 25.8662 65.6013 25.8662 65.6873 25.8662H67.5779C67.9216 25.8662 68.1794 25.9521 68.4372 26.0381C68.695 26.21 68.8669 26.3818 68.9528 26.6396C69.1247 26.8974 69.1247 27.1553 69.1247 27.499C69.1247 27.8428 69.0388 28.1865 68.8669 28.4443C68.695 28.7021 68.5232 28.874 68.1794 28.9599C68.1794 28.9599 68.1794 28.9599 68.1794 29.0459L69.1247 31.4521C69.1247 31.4521 69.1247 31.4521 69.1247 31.538C69.1247 31.624 69.1247 31.624 69.0388 31.624H68.2654C68.0935 31.538 68.0935 31.538 68.0935 31.4521ZM66.3747 26.7256V28.3584H67.2341C67.4919 28.3584 67.6638 28.2724 67.7497 28.1006C67.9216 27.9287 67.9216 27.7568 67.9216 27.499C67.9216 27.2412 67.8357 27.0693 67.7497 26.8974C67.5779 26.7256 67.406 26.6396 67.2341 26.6396L66.3747 26.7256Z" fill="white"/>
</svg>
